# Wavefront OBJ file automatically generated by Tiled2Unity

# Vertices (Count = 441)
v 0 -16 0
v -16 -16 0
v -16 0 0
v 0 0 0
v -32 -16 0
v -32 0 0
v -48 -16 0
v -48 0 0
v -64 -16 0
v -64 0 0
v -80 -16 0
v -80 0 0
v -96 -16 0
v -96 0 0
v -112 -16 0
v -112 0 0
v -128 -16 0
v -128 0 0
v -144 -16 0
v -144 0 0
v -160 -16 0
v -160 0 0
v -176 -16 0
v -176 0 0
v -192 -16 0
v -192 0 0
v -208 -16 0
v -208 0 0
v -224 -16 0
v -224 0 0
v -240 -16 0
v -240 0 0
v -256 -16 0
v -256 0 0
v -272 -16 0
v -272 0 0
v -288 -16 0
v -288 0 0
v -304 -16 0
v -304 0 0
v -320 -16 0
v -320 0 0
v 0 -32 0
v -16 -32 0
v -32 -32 0
v -48 -32 0
v -64 -32 0
v -80 -32 0
v -96 -32 0
v -112 -32 0
v -128 -32 0
v -144 -32 0
v -160 -32 0
v -176 -32 0
v -192 -32 0
v -208 -32 0
v -224 -32 0
v -240 -32 0
v -256 -32 0
v -272 -32 0
v -288 -32 0
v -304 -32 0
v -320 -32 0
v 0 -48 0
v -16 -48 0
v -32 -48 0
v -48 -48 0
v -64 -48 0
v -80 -48 0
v -96 -48 0
v -112 -48 0
v -128 -48 0
v -144 -48 0
v -160 -48 0
v -176 -48 0
v -192 -48 0
v -208 -48 0
v -224 -48 0
v -240 -48 0
v -256 -48 0
v -272 -48 0
v -288 -48 0
v -304 -48 0
v -320 -48 0
v 0 -64 0
v -16 -64 0
v -32 -64 0
v -48 -64 0
v -64 -64 0
v -80 -64 0
v -96 -64 0
v -112 -64 0
v -128 -64 0
v -144 -64 0
v -160 -64 0
v -176 -64 0
v -192 -64 0
v -208 -64 0
v -224 -64 0
v -240 -64 0
v -256 -64 0
v -272 -64 0
v -288 -64 0
v -304 -64 0
v -320 -64 0
v 0 -80 0
v -16 -80 0
v -32 -80 0
v -48 -80 0
v -64 -80 0
v -80 -80 0
v -96 -80 0
v -112 -80 0
v -128 -80 0
v -144 -80 0
v -160 -80 0
v -176 -80 0
v -192 -80 0
v -208 -80 0
v -224 -80 0
v -240 -80 0
v -256 -80 0
v -272 -80 0
v -288 -80 0
v -304 -80 0
v -320 -80 0
v 0 -96 0
v -16 -96 0
v -32 -96 0
v -48 -96 0
v -64 -96 0
v -80 -96 0
v -96 -96 0
v -112 -96 0
v -128 -96 0
v -144 -96 0
v -160 -96 0
v -176 -96 0
v -192 -96 0
v -208 -96 0
v -224 -96 0
v -240 -96 0
v -256 -96 0
v -272 -96 0
v -288 -96 0
v -304 -96 0
v -320 -96 0
v 0 -112 0
v -16 -112 0
v -32 -112 0
v -48 -112 0
v -64 -112 0
v -80 -112 0
v -96 -112 0
v -112 -112 0
v -128 -112 0
v -144 -112 0
v -160 -112 0
v -176 -112 0
v -192 -112 0
v -208 -112 0
v -224 -112 0
v -240 -112 0
v -256 -112 0
v -272 -112 0
v -288 -112 0
v -304 -112 0
v -320 -112 0
v 0 -128 0
v -16 -128 0
v -32 -128 0
v -48 -128 0
v -64 -128 0
v -80 -128 0
v -96 -128 0
v -112 -128 0
v -128 -128 0
v -144 -128 0
v -160 -128 0
v -176 -128 0
v -192 -128 0
v -208 -128 0
v -224 -128 0
v -240 -128 0
v -256 -128 0
v -272 -128 0
v -288 -128 0
v -304 -128 0
v -320 -128 0
v 0 -144 0
v -16 -144 0
v -32 -144 0
v -48 -144 0
v -64 -144 0
v -80 -144 0
v -96 -144 0
v -112 -144 0
v -128 -144 0
v -144 -144 0
v -160 -144 0
v -176 -144 0
v -192 -144 0
v -208 -144 0
v -224 -144 0
v -240 -144 0
v -256 -144 0
v -272 -144 0
v -288 -144 0
v -304 -144 0
v -320 -144 0
v 0 -160 0
v -16 -160 0
v -32 -160 0
v -48 -160 0
v -64 -160 0
v -80 -160 0
v -96 -160 0
v -112 -160 0
v -128 -160 0
v -144 -160 0
v -160 -160 0
v -176 -160 0
v -192 -160 0
v -208 -160 0
v -224 -160 0
v -240 -160 0
v -256 -160 0
v -272 -160 0
v -288 -160 0
v -304 -160 0
v -320 -160 0
v 0 -176 0
v -16 -176 0
v -32 -176 0
v -48 -176 0
v -64 -176 0
v -80 -176 0
v -96 -176 0
v -112 -176 0
v -128 -176 0
v -144 -176 0
v -160 -176 0
v -176 -176 0
v -192 -176 0
v -208 -176 0
v -224 -176 0
v -240 -176 0
v -256 -176 0
v -272 -176 0
v -288 -176 0
v -304 -176 0
v -320 -176 0
v 0 -192 0
v -16 -192 0
v -32 -192 0
v -48 -192 0
v -64 -192 0
v -80 -192 0
v -96 -192 0
v -112 -192 0
v -128 -192 0
v -144 -192 0
v -160 -192 0
v -176 -192 0
v -192 -192 0
v -208 -192 0
v -224 -192 0
v -240 -192 0
v -256 -192 0
v -272 -192 0
v -288 -192 0
v -304 -192 0
v -320 -192 0
v 0 -208 0
v -16 -208 0
v -32 -208 0
v -48 -208 0
v -64 -208 0
v -80 -208 0
v -96 -208 0
v -112 -208 0
v -128 -208 0
v -144 -208 0
v -160 -208 0
v -176 -208 0
v -192 -208 0
v -208 -208 0
v -224 -208 0
v -240 -208 0
v -256 -208 0
v -272 -208 0
v -288 -208 0
v -304 -208 0
v -320 -208 0
v 0 -224 0
v -16 -224 0
v -32 -224 0
v -48 -224 0
v -64 -224 0
v -80 -224 0
v -96 -224 0
v -112 -224 0
v -128 -224 0
v -144 -224 0
v -160 -224 0
v -176 -224 0
v -192 -224 0
v -208 -224 0
v -224 -224 0
v -240 -224 0
v -256 -224 0
v -272 -224 0
v -288 -224 0
v -304 -224 0
v -320 -224 0
v 0 -240 0
v -16 -240 0
v -32 -240 0
v -48 -240 0
v -64 -240 0
v -80 -240 0
v -96 -240 0
v -112 -240 0
v -128 -240 0
v -144 -240 0
v -160 -240 0
v -176 -240 0
v -192 -240 0
v -208 -240 0
v -224 -240 0
v -240 -240 0
v -256 -240 0
v -272 -240 0
v -288 -240 0
v -304 -240 0
v -320 -240 0
v 0 -256 0
v -16 -256 0
v -32 -256 0
v -48 -256 0
v -64 -256 0
v -80 -256 0
v -96 -256 0
v -112 -256 0
v -128 -256 0
v -144 -256 0
v -160 -256 0
v -176 -256 0
v -192 -256 0
v -208 -256 0
v -224 -256 0
v -240 -256 0
v -256 -256 0
v -272 -256 0
v -288 -256 0
v -304 -256 0
v -320 -256 0
v 0 -272 0
v -16 -272 0
v -32 -272 0
v -48 -272 0
v -64 -272 0
v -80 -272 0
v -96 -272 0
v -112 -272 0
v -128 -272 0
v -144 -272 0
v -160 -272 0
v -176 -272 0
v -192 -272 0
v -208 -272 0
v -224 -272 0
v -240 -272 0
v -256 -272 0
v -272 -272 0
v -288 -272 0
v -304 -272 0
v -320 -272 0
v 0 -288 0
v -16 -288 0
v -32 -288 0
v -48 -288 0
v -64 -288 0
v -80 -288 0
v -96 -288 0
v -112 -288 0
v -128 -288 0
v -144 -288 0
v -160 -288 0
v -176 -288 0
v -192 -288 0
v -208 -288 0
v -224 -288 0
v -240 -288 0
v -256 -288 0
v -272 -288 0
v -288 -288 0
v -304 -288 0
v -320 -288 0
v 0 -304 0
v -16 -304 0
v -32 -304 0
v -48 -304 0
v -64 -304 0
v -80 -304 0
v -96 -304 0
v -112 -304 0
v -128 -304 0
v -144 -304 0
v -160 -304 0
v -176 -304 0
v -192 -304 0
v -208 -304 0
v -224 -304 0
v -240 -304 0
v -256 -304 0
v -272 -304 0
v -288 -304 0
v -304 -304 0
v -320 -304 0
v 0 -320 0
v -16 -320 0
v -32 -320 0
v -48 -320 0
v -64 -320 0
v -80 -320 0
v -96 -320 0
v -112 -320 0
v -128 -320 0
v -144 -320 0
v -160 -320 0
v -176 -320 0
v -192 -320 0
v -208 -320 0
v -224 -320 0
v -240 -320 0
v -256 -320 0
v -272 -320 0
v -288 -320 0
v -304 -320 0
v -320 -320 0

# Texture Coorindates (Count = 12)
vt 0.0001220703 0.0001220703
vt 0.2386839 0.0001220703
vt 0.2386839 0.9998779
vt 0.0001220703 0.9998779
vt 0.5075848 0.0001220703
vt 0.7461466 0.0001220703
vt 0.7461466 0.9998779
vt 0.5075848 0.9998779
vt 0.2538534 0.0001220703
vt 0.4924152 0.0001220703
vt 0.4924152 0.9998779
vt 0.2538534 0.9998779

# Normal
vn 0 0 -1

# Groups (Count = 1)
g mesh_[00]_[00]
f  1/1/1  2/2/1  3/3/1  4/4/1 
f  2/1/1  5/2/1  6/3/1  3/4/1 
f  5/1/1  7/2/1  8/3/1  6/4/1 
f  7/1/1  9/2/1  10/3/1  8/4/1 
f  9/1/1  11/2/1  12/3/1  10/4/1 
f  11/1/1  13/2/1  14/3/1  12/4/1 
f  13/1/1  15/2/1  16/3/1  14/4/1 
f  15/1/1  17/2/1  18/3/1  16/4/1 
f  17/1/1  19/2/1  20/3/1  18/4/1 
f  19/1/1  21/2/1  22/3/1  20/4/1 
f  21/1/1  23/2/1  24/3/1  22/4/1 
f  23/1/1  25/2/1  26/3/1  24/4/1 
f  25/1/1  27/2/1  28/3/1  26/4/1 
f  27/1/1  29/2/1  30/3/1  28/4/1 
f  29/1/1  31/2/1  32/3/1  30/4/1 
f  31/1/1  33/2/1  34/3/1  32/4/1 
f  33/1/1  35/2/1  36/3/1  34/4/1 
f  35/1/1  37/2/1  38/3/1  36/4/1 
f  37/1/1  39/2/1  40/3/1  38/4/1 
f  39/1/1  41/2/1  42/3/1  40/4/1 
f  43/1/1  44/2/1  2/3/1  1/4/1 
f  44/5/1  45/6/1  5/7/1  2/8/1 
f  45/9/1  46/10/1  7/11/1  5/12/1 
f  46/5/1  47/6/1  9/7/1  7/8/1 
f  47/9/1  48/10/1  11/11/1  9/12/1 
f  48/5/1  49/6/1  13/7/1  11/8/1 
f  49/9/1  50/10/1  15/11/1  13/12/1 
f  50/5/1  51/6/1  17/7/1  15/8/1 
f  51/9/1  52/10/1  19/11/1  17/12/1 
f  52/5/1  53/6/1  21/7/1  19/8/1 
f  53/9/1  54/10/1  23/11/1  21/12/1 
f  54/5/1  55/6/1  25/7/1  23/8/1 
f  55/9/1  56/10/1  27/11/1  25/12/1 
f  56/5/1  57/6/1  29/7/1  27/8/1 
f  57/9/1  58/10/1  31/11/1  29/12/1 
f  58/5/1  59/6/1  33/7/1  31/8/1 
f  59/9/1  60/10/1  35/11/1  33/12/1 
f  60/5/1  61/6/1  37/7/1  35/8/1 
f  61/9/1  62/10/1  39/11/1  37/12/1 
f  62/1/1  63/2/1  41/3/1  39/4/1 
f  64/1/1  65/2/1  44/3/1  43/4/1 
f  65/5/1  66/6/1  45/7/1  44/8/1 
f  66/9/1  67/10/1  46/11/1  45/12/1 
f  67/1/1  68/2/1  47/3/1  46/4/1 
f  68/1/1  69/2/1  48/3/1  47/4/1 
f  69/1/1  70/2/1  49/3/1  48/4/1 
f  70/1/1  71/2/1  50/3/1  49/4/1 
f  71/1/1  72/2/1  51/3/1  50/4/1 
f  72/1/1  73/2/1  52/3/1  51/4/1 
f  73/1/1  74/2/1  53/3/1  52/4/1 
f  74/1/1  75/2/1  54/3/1  53/4/1 
f  75/1/1  76/2/1  55/3/1  54/4/1 
f  76/1/1  77/2/1  56/3/1  55/4/1 
f  77/1/1  78/2/1  57/3/1  56/4/1 
f  78/1/1  79/2/1  58/3/1  57/4/1 
f  79/1/1  80/2/1  59/3/1  58/4/1 
f  80/1/1  81/2/1  60/3/1  59/4/1 
f  81/1/1  82/2/1  61/3/1  60/4/1 
f  82/5/1  83/6/1  62/7/1  61/8/1 
f  83/1/1  84/2/1  63/3/1  62/4/1 
f  85/1/1  86/2/1  65/3/1  64/4/1 
f  86/5/1  87/6/1  66/7/1  65/8/1 
f  87/1/1  88/2/1  67/3/1  66/4/1 
f  88/1/1  89/2/1  68/3/1  67/4/1 
f  89/1/1  90/2/1  69/3/1  68/4/1 
f  90/5/1  91/6/1  70/7/1  69/8/1 
f  91/9/1  92/10/1  71/11/1  70/12/1 
f  92/5/1  93/6/1  72/7/1  71/8/1 
f  93/9/1  94/10/1  73/11/1  72/12/1 
f  94/5/1  95/6/1  74/7/1  73/8/1 
f  95/9/1  96/10/1  75/11/1  74/12/1 
f  96/5/1  97/6/1  76/7/1  75/8/1 
f  97/9/1  98/10/1  77/11/1  76/12/1 
f  98/5/1  99/6/1  78/7/1  77/8/1 
f  99/9/1  100/10/1  79/11/1  78/12/1 
f  100/5/1  101/6/1  80/7/1  79/8/1 
f  101/9/1  102/10/1  81/11/1  80/12/1 
f  102/1/1  103/2/1  82/3/1  81/4/1 
f  103/9/1  104/10/1  83/11/1  82/12/1 
f  104/1/1  105/2/1  84/3/1  83/4/1 
f  106/1/1  107/2/1  86/3/1  85/4/1 
f  107/5/1  108/6/1  87/7/1  86/8/1 
f  108/1/1  109/2/1  88/3/1  87/4/1 
f  109/5/1  110/6/1  89/7/1  88/8/1 
f  110/1/1  111/2/1  90/3/1  89/4/1 
f  111/5/1  112/6/1  91/7/1  90/8/1 
f  112/9/1  113/10/1  92/11/1  91/12/1 
f  113/1/1  114/2/1  93/3/1  92/4/1 
f  114/1/1  115/2/1  94/3/1  93/4/1 
f  115/1/1  116/2/1  95/3/1  94/4/1 
f  116/1/1  117/2/1  96/3/1  95/4/1 
f  117/1/1  118/2/1  97/3/1  96/4/1 
f  118/1/1  119/2/1  98/3/1  97/4/1 
f  119/1/1  120/2/1  99/3/1  98/4/1 
f  120/1/1  121/2/1  100/3/1  99/4/1 
f  121/1/1  122/2/1  101/3/1  100/4/1 
f  122/9/1  123/10/1  102/11/1  101/12/1 
f  123/1/1  124/2/1  103/3/1  102/4/1 
f  124/9/1  125/10/1  104/11/1  103/12/1 
f  125/1/1  126/2/1  105/3/1  104/4/1 
f  127/1/1  128/2/1  107/3/1  106/4/1 
f  128/5/1  129/6/1  108/7/1  107/8/1 
f  129/1/1  130/2/1  109/3/1  108/4/1 
f  130/5/1  131/6/1  110/7/1  109/8/1 
f  131/1/1  132/2/1  111/3/1  110/4/1 
f  132/5/1  133/6/1  112/7/1  111/8/1 
f  133/1/1  134/2/1  113/3/1  112/4/1 
f  134/1/1  135/2/1  114/3/1  113/4/1 
f  135/9/1  136/10/1  115/11/1  114/12/1 
f  136/5/1  137/6/1  116/7/1  115/8/1 
f  137/9/1  138/10/1  117/11/1  116/12/1 
f  138/1/1  139/2/1  118/3/1  117/4/1 
f  139/1/1  140/2/1  119/3/1  118/4/1 
f  140/1/1  141/2/1  120/3/1  119/4/1 
f  141/1/1  142/2/1  121/3/1  120/4/1 
f  142/1/1  143/2/1  122/3/1  121/4/1 
f  143/9/1  144/10/1  123/11/1  122/12/1 
f  144/1/1  145/2/1  124/3/1  123/4/1 
f  145/9/1  146/10/1  125/11/1  124/12/1 
f  146/1/1  147/2/1  126/3/1  125/4/1 
f  148/1/1  149/2/1  128/3/1  127/4/1 
f  149/5/1  150/6/1  129/7/1  128/8/1 
f  150/1/1  151/2/1  130/3/1  129/4/1 
f  151/5/1  152/6/1  131/7/1  130/8/1 
f  152/9/1  153/10/1  132/11/1  131/12/1 
f  153/5/1  154/6/1  133/7/1  132/8/1 
f  154/1/1  155/2/1  134/3/1  133/4/1 
f  155/5/1  156/6/1  135/7/1  134/8/1 
f  156/9/1  157/10/1  136/11/1  135/12/1 
f  157/5/1  158/6/1  137/7/1  136/8/1 
f  158/9/1  159/10/1  138/11/1  137/12/1 
f  159/5/1  160/6/1  139/7/1  138/8/1 
f  160/1/1  161/2/1  140/3/1  139/4/1 
f  161/1/1  162/2/1  141/3/1  140/4/1 
f  162/1/1  163/2/1  142/3/1  141/4/1 
f  163/1/1  164/2/1  143/3/1  142/4/1 
f  164/9/1  165/10/1  144/11/1  143/12/1 
f  165/1/1  166/2/1  145/3/1  144/4/1 
f  166/9/1  167/10/1  146/11/1  145/12/1 
f  167/1/1  168/2/1  147/3/1  146/4/1 
f  169/1/1  170/2/1  149/3/1  148/4/1 
f  170/5/1  171/6/1  150/7/1  149/8/1 
f  171/9/1  172/10/1  151/11/1  150/12/1 
f  172/5/1  173/6/1  152/7/1  151/8/1 
f  173/1/1  174/2/1  153/3/1  152/4/1 
f  174/1/1  175/2/1  154/3/1  153/4/1 
f  175/1/1  176/2/1  155/3/1  154/4/1 
f  176/5/1  177/6/1  156/7/1  155/8/1 
f  177/9/1  178/10/1  157/11/1  156/12/1 
f  178/5/1  179/6/1  158/7/1  157/8/1 
f  179/9/1  180/10/1  159/11/1  158/12/1 
f  180/5/1  181/6/1  160/7/1  159/8/1 
f  181/1/1  182/2/1  161/3/1  160/4/1 
f  182/1/1  183/2/1  162/3/1  161/4/1 
f  183/1/1  184/2/1  163/3/1  162/4/1 
f  184/1/1  185/2/1  164/3/1  163/4/1 
f  185/1/1  186/2/1  165/3/1  164/4/1 
f  186/1/1  187/2/1  166/3/1  165/4/1 
f  187/9/1  188/10/1  167/11/1  166/12/1 
f  188/1/1  189/2/1  168/3/1  167/4/1 
f  190/1/1  191/2/1  170/3/1  169/4/1 
f  191/5/1  192/6/1  171/7/1  170/8/1 
f  192/1/1  193/2/1  172/3/1  171/4/1 
f  193/5/1  194/6/1  173/7/1  172/8/1 
f  194/9/1  195/10/1  174/11/1  173/12/1 
f  195/1/1  196/2/1  175/3/1  174/4/1 
f  196/1/1  197/2/1  176/3/1  175/4/1 
f  197/1/1  198/2/1  177/3/1  176/4/1 
f  198/9/1  199/10/1  178/11/1  177/12/1 
f  199/5/1  200/6/1  179/7/1  178/8/1 
f  200/9/1  201/10/1  180/11/1  179/12/1 
f  201/1/1  202/2/1  181/3/1  180/4/1 
f  202/1/1  203/2/1  182/3/1  181/4/1 
f  203/5/1  204/6/1  183/7/1  182/8/1 
f  204/9/1  205/10/1  184/11/1  183/12/1 
f  205/5/1  206/6/1  185/7/1  184/8/1 
f  206/9/1  207/10/1  186/11/1  185/12/1 
f  207/1/1  208/2/1  187/3/1  186/4/1 
f  208/9/1  209/10/1  188/11/1  187/12/1 
f  209/1/1  210/2/1  189/3/1  188/4/1 
f  211/1/1  212/2/1  191/3/1  190/4/1 
f  212/5/1  213/6/1  192/7/1  191/8/1 
f  213/1/1  214/2/1  193/3/1  192/4/1 
f  214/1/1  215/2/1  194/3/1  193/4/1 
f  215/1/1  216/2/1  195/3/1  194/4/1 
f  216/1/1  217/2/1  196/3/1  195/4/1 
f  217/1/1  218/2/1  197/3/1  196/4/1 
f  218/1/1  219/2/1  198/3/1  197/4/1 
f  219/9/1  220/10/1  199/11/1  198/12/1 
f  220/5/1  221/6/1  200/7/1  199/8/1 
f  221/9/1  222/10/1  201/11/1  200/12/1 
f  222/1/1  223/2/1  202/3/1  201/4/1 
f  223/9/1  224/10/1  203/11/1  202/12/1 
f  224/5/1  225/6/1  204/7/1  203/8/1 
f  225/9/1  226/10/1  205/11/1  204/12/1 
f  226/5/1  227/6/1  206/7/1  205/8/1 
f  227/9/1  228/10/1  207/11/1  206/12/1 
f  228/1/1  229/2/1  208/3/1  207/4/1 
f  229/9/1  230/10/1  209/11/1  208/12/1 
f  230/1/1  231/2/1  210/3/1  209/4/1 
f  232/1/1  233/2/1  212/3/1  211/4/1 
f  233/5/1  234/6/1  213/7/1  212/8/1 
f  234/9/1  235/10/1  214/11/1  213/12/1 
f  235/5/1  236/6/1  215/7/1  214/8/1 
f  236/9/1  237/10/1  216/11/1  215/12/1 
f  237/5/1  238/6/1  217/7/1  216/8/1 
f  238/9/1  239/10/1  218/11/1  217/12/1 
f  239/1/1  240/2/1  219/3/1  218/4/1 
f  240/9/1  241/10/1  220/11/1  219/12/1 
f  241/1/1  242/2/1  221/3/1  220/4/1 
f  242/9/1  243/10/1  222/11/1  221/12/1 
f  243/1/1  244/2/1  223/3/1  222/4/1 
f  244/9/1  245/10/1  224/11/1  223/12/1 
f  245/5/1  246/6/1  225/7/1  224/8/1 
f  246/9/1  247/10/1  226/11/1  225/12/1 
f  247/5/1  248/6/1  227/7/1  226/8/1 
f  248/9/1  249/10/1  228/11/1  227/12/1 
f  249/1/1  250/2/1  229/3/1  228/4/1 
f  250/9/1  251/10/1  230/11/1  229/12/1 
f  251/1/1  252/2/1  231/3/1  230/4/1 
f  253/1/1  254/2/1  233/3/1  232/4/1 
f  254/1/1  255/2/1  234/3/1  233/4/1 
f  255/1/1  256/2/1  235/3/1  234/4/1 
f  256/5/1  257/6/1  236/7/1  235/8/1 
f  257/9/1  258/10/1  237/11/1  236/12/1 
f  258/1/1  259/2/1  238/3/1  237/4/1 
f  259/1/1  260/2/1  239/3/1  238/4/1 
f  260/1/1  261/2/1  240/3/1  239/4/1 
f  261/9/1  262/10/1  241/11/1  240/12/1 
f  262/1/1  263/2/1  242/3/1  241/4/1 
f  263/9/1  264/10/1  243/11/1  242/12/1 
f  264/1/1  265/2/1  244/3/1  243/4/1 
f  265/1/1  266/2/1  245/3/1  244/4/1 
f  266/5/1  267/6/1  246/7/1  245/8/1 
f  267/9/1  268/10/1  247/11/1  246/12/1 
f  268/5/1  269/6/1  248/7/1  247/8/1 
f  269/9/1  270/10/1  249/11/1  248/12/1 
f  270/1/1  271/2/1  250/3/1  249/4/1 
f  271/9/1  272/10/1  251/11/1  250/12/1 
f  272/1/1  273/2/1  252/3/1  251/4/1 
f  274/1/1  275/2/1  254/3/1  253/4/1 
f  275/5/1  276/6/1  255/7/1  254/8/1 
f  276/9/1  277/10/1  256/11/1  255/12/1 
f  277/5/1  278/6/1  257/7/1  256/8/1 
f  278/1/1  279/2/1  258/3/1  257/4/1 
f  279/1/1  280/2/1  259/3/1  258/4/1 
f  280/1/1  281/2/1  260/3/1  259/4/1 
f  281/1/1  282/2/1  261/3/1  260/4/1 
f  282/9/1  283/10/1  262/11/1  261/12/1 
f  283/1/1  284/2/1  263/3/1  262/4/1 
f  284/9/1  285/10/1  264/11/1  263/12/1 
f  285/1/1  286/2/1  265/3/1  264/4/1 
f  286/1/1  287/2/1  266/3/1  265/4/1 
f  287/5/1  288/6/1  267/7/1  266/8/1 
f  288/9/1  289/10/1  268/11/1  267/12/1 
f  289/5/1  290/6/1  269/7/1  268/8/1 
f  290/9/1  291/10/1  270/11/1  269/12/1 
f  291/1/1  292/2/1  271/3/1  270/4/1 
f  292/9/1  293/10/1  272/11/1  271/12/1 
f  293/1/1  294/2/1  273/3/1  272/4/1 
f  295/1/1  296/2/1  275/3/1  274/4/1 
f  296/5/1  297/6/1  276/7/1  275/8/1 
f  297/1/1  298/2/1  277/3/1  276/4/1 
f  298/1/1  299/2/1  278/3/1  277/4/1 
f  299/1/1  300/2/1  279/3/1  278/4/1 
f  300/5/1  301/6/1  280/7/1  279/8/1 
f  301/9/1  302/10/1  281/11/1  280/12/1 
f  302/5/1  303/6/1  282/7/1  281/8/1 
f  303/9/1  304/10/1  283/11/1  282/12/1 
f  304/1/1  305/2/1  284/3/1  283/4/1 
f  305/9/1  306/10/1  285/11/1  284/12/1 
f  306/5/1  307/6/1  286/7/1  285/8/1 
f  307/1/1  308/2/1  287/3/1  286/4/1 
f  308/5/1  309/6/1  288/7/1  287/8/1 
f  309/9/1  310/10/1  289/11/1  288/12/1 
f  310/5/1  311/6/1  290/7/1  289/8/1 
f  311/9/1  312/10/1  291/11/1  290/12/1 
f  312/1/1  313/2/1  292/3/1  291/4/1 
f  313/9/1  314/10/1  293/11/1  292/12/1 
f  314/1/1  315/2/1  294/3/1  293/4/1 
f  316/1/1  317/2/1  296/3/1  295/4/1 
f  317/5/1  318/6/1  297/7/1  296/8/1 
f  318/9/1  319/10/1  298/11/1  297/12/1 
f  319/5/1  320/6/1  299/7/1  298/8/1 
f  320/9/1  321/10/1  300/11/1  299/12/1 
f  321/5/1  322/6/1  301/7/1  300/8/1 
f  322/1/1  323/2/1  302/3/1  301/4/1 
f  323/1/1  324/2/1  303/3/1  302/4/1 
f  324/1/1  325/2/1  304/3/1  303/4/1 
f  325/1/1  326/2/1  305/3/1  304/4/1 
f  326/9/1  327/10/1  306/11/1  305/12/1 
f  327/1/1  328/2/1  307/3/1  306/4/1 
f  328/1/1  329/2/1  308/3/1  307/4/1 
f  329/5/1  330/6/1  309/7/1  308/8/1 
f  330/9/1  331/10/1  310/11/1  309/12/1 
f  331/5/1  332/6/1  311/7/1  310/8/1 
f  332/9/1  333/10/1  312/11/1  311/12/1 
f  333/1/1  334/2/1  313/3/1  312/4/1 
f  334/9/1  335/10/1  314/11/1  313/12/1 
f  335/1/1  336/2/1  315/3/1  314/4/1 
f  337/1/1  338/2/1  317/3/1  316/4/1 
f  338/1/1  339/2/1  318/3/1  317/4/1 
f  339/1/1  340/2/1  319/3/1  318/4/1 
f  340/1/1  341/2/1  320/3/1  319/4/1 
f  341/9/1  342/10/1  321/11/1  320/12/1 
f  342/1/1  343/2/1  322/3/1  321/4/1 
f  343/1/1  344/2/1  323/3/1  322/4/1 
f  344/5/1  345/6/1  324/7/1  323/8/1 
f  345/9/1  346/10/1  325/11/1  324/12/1 
f  346/5/1  347/6/1  326/7/1  325/8/1 
f  347/9/1  348/10/1  327/11/1  326/12/1 
f  348/1/1  349/2/1  328/3/1  327/4/1 
f  349/1/1  350/2/1  329/3/1  328/4/1 
f  350/5/1  351/6/1  330/7/1  329/8/1 
f  351/9/1  352/10/1  331/11/1  330/12/1 
f  352/5/1  353/6/1  332/7/1  331/8/1 
f  353/9/1  354/10/1  333/11/1  332/12/1 
f  354/1/1  355/2/1  334/3/1  333/4/1 
f  355/9/1  356/10/1  335/11/1  334/12/1 
f  356/1/1  357/2/1  336/3/1  335/4/1 
f  358/1/1  359/2/1  338/3/1  337/4/1 
f  359/5/1  360/6/1  339/7/1  338/8/1 
f  360/9/1  361/10/1  340/11/1  339/12/1 
f  361/1/1  362/2/1  341/3/1  340/4/1 
f  362/9/1  363/10/1  342/11/1  341/12/1 
f  363/1/1  364/2/1  343/3/1  342/4/1 
f  364/9/1  365/10/1  344/11/1  343/12/1 
f  365/5/1  366/6/1  345/7/1  344/8/1 
f  366/5/1  367/6/1  346/7/1  345/8/1 
f  367/5/1  368/6/1  347/7/1  346/8/1 
f  368/5/1  369/6/1  348/7/1  347/8/1 
f  369/1/1  370/2/1  349/3/1  348/4/1 
f  370/1/1  371/2/1  350/3/1  349/4/1 
f  371/5/1  372/6/1  351/7/1  350/8/1 
f  372/9/1  373/10/1  352/11/1  351/12/1 
f  373/5/1  374/6/1  353/7/1  352/8/1 
f  374/9/1  375/10/1  354/11/1  353/12/1 
f  375/1/1  376/2/1  355/3/1  354/4/1 
f  376/9/1  377/10/1  356/11/1  355/12/1 
f  377/1/1  378/2/1  357/3/1  356/4/1 
f  379/1/1  380/2/1  359/3/1  358/4/1 
f  380/5/1  381/6/1  360/7/1  359/8/1 
f  381/1/1  382/2/1  361/3/1  360/4/1 
f  382/1/1  383/2/1  362/3/1  361/4/1 
f  383/9/1  384/10/1  363/11/1  362/12/1 
f  384/1/1  385/2/1  364/3/1  363/4/1 
f  385/1/1  386/2/1  365/3/1  364/4/1 
f  386/1/1  387/2/1  366/3/1  365/4/1 
f  387/1/1  388/2/1  367/3/1  366/4/1 
f  388/1/1  389/2/1  368/3/1  367/4/1 
f  389/1/1  390/2/1  369/3/1  368/4/1 
f  390/1/1  391/2/1  370/3/1  369/4/1 
f  391/1/1  392/2/1  371/3/1  370/4/1 
f  392/1/1  393/2/1  372/3/1  371/4/1 
f  393/9/1  394/10/1  373/11/1  372/12/1 
f  394/1/1  395/2/1  374/3/1  373/4/1 
f  395/1/1  396/2/1  375/3/1  374/4/1 
f  396/1/1  397/2/1  376/3/1  375/4/1 
f  397/9/1  398/10/1  377/11/1  376/12/1 
f  398/1/1  399/2/1  378/3/1  377/4/1 
f  400/1/1  401/2/1  380/3/1  379/4/1 
f  401/5/1  402/6/1  381/7/1  380/8/1 
f  402/9/1  403/10/1  382/11/1  381/12/1 
f  403/5/1  404/6/1  383/7/1  382/8/1 
f  404/9/1  405/10/1  384/11/1  383/12/1 
f  405/5/1  406/6/1  385/7/1  384/8/1 
f  406/9/1  407/10/1  386/11/1  385/12/1 
f  407/5/1  408/6/1  387/7/1  386/8/1 
f  408/1/1  409/2/1  388/3/1  387/4/1 
f  409/1/1  410/2/1  389/3/1  388/4/1 
f  410/1/1  411/2/1  390/3/1  389/4/1 
f  411/1/1  412/2/1  391/3/1  390/4/1 
f  412/1/1  413/2/1  392/3/1  391/4/1 
f  413/1/1  414/2/1  393/3/1  392/4/1 
f  414/9/1  415/10/1  394/11/1  393/12/1 
f  415/5/1  416/6/1  395/7/1  394/8/1 
f  416/9/1  417/10/1  396/11/1  395/12/1 
f  417/5/1  418/6/1  397/7/1  396/8/1 
f  418/9/1  419/10/1  398/11/1  397/12/1 
f  419/1/1  420/2/1  399/3/1  398/4/1 
f  421/1/1  422/2/1  401/3/1  400/4/1 
f  422/1/1  423/2/1  402/3/1  401/4/1 
f  423/1/1  424/2/1  403/3/1  402/4/1 
f  424/1/1  425/2/1  404/3/1  403/4/1 
f  425/1/1  426/2/1  405/3/1  404/4/1 
f  426/1/1  427/2/1  406/3/1  405/4/1 
f  427/1/1  428/2/1  407/3/1  406/4/1 
f  428/1/1  429/2/1  408/3/1  407/4/1 
f  429/1/1  430/2/1  409/3/1  408/4/1 
f  430/1/1  431/2/1  410/3/1  409/4/1 
f  431/1/1  432/2/1  411/3/1  410/4/1 
f  432/1/1  433/2/1  412/3/1  411/4/1 
f  433/1/1  434/2/1  413/3/1  412/4/1 
f  434/1/1  435/2/1  414/3/1  413/4/1 
f  435/1/1  436/2/1  415/3/1  414/4/1 
f  436/1/1  437/2/1  416/3/1  415/4/1 
f  437/1/1  438/2/1  417/3/1  416/4/1 
f  438/1/1  439/2/1  418/3/1  417/4/1 
f  439/1/1  440/2/1  419/3/1  418/4/1 
f  440/1/1  441/2/1  420/3/1  419/4/1 
